<?xml version="1.0" encoding="utf-8"?>
<!-- Generator: Adobe Illustrator 23.0.4, SVG Export Plug-In . SVG Version: 6.00 Build 0)  -->
<svg version="1.1" id="Layer_1" xmlns="http://www.w3.org/2000/svg" xmlns:xlink="http://www.w3.org/1999/xlink" x="0px" y="0px"
	 viewBox="0 0 102.3 77.7" style="enable-background:new 0 0 102.3 77.7;" xml:space="preserve">
<style type="text/css">
	.st0{fill:#4063D8;}
	.st1{fill:none;stroke:#9558B2;stroke-width:10;stroke-linecap:round;stroke-miterlimit:10;}
	.st2{fill:none;stroke:#389826;stroke-width:10;stroke-linecap:round;stroke-miterlimit:10;}
	.st3{fill:none;stroke:#CB3C33;stroke-width:10;stroke-linecap:round;stroke-miterlimit:10;}
</style>
<path class="st0" d="M55.5,67.7c1.1,1.1,1.7,2.5,1.7,4.1c0,1.7-0.6,3.1-1.7,4.2c-1.1,1.1-2.6,1.6-4.4,1.6c-1.8,0-3.2-0.5-4.3-1.6
	c-1.1-1.1-1.7-2.5-1.7-4.2c0-1.6,0.6-3,1.7-4.1c1.1-1.1,2.6-1.7,4.3-1.7C52.9,66,54.4,66.6,55.5,67.7z"/>
<path class="st1" d="M34.1,54.2c9.4-9.4,24.7-9.4,34.1,0"/>
<path class="st2" d="M5,24.1c25.5-25.5,66.8-25.5,92.3,0"/>
<path class="st3" d="M19.9,39.1c17.3-17.3,45.2-17.3,62.5,0"/>
</svg>
