<?xml version="1.0" encoding="utf-8"?>
<!-- Generator: Adobe Illustrator 23.0.4, SVG Export Plug-In . SVG Version: 6.00 Build 0)  -->
<svg version="1.1" id="Layer_1" xmlns="http://www.w3.org/2000/svg" xmlns:xlink="http://www.w3.org/1999/xlink" x="0px" y="0px"
	 viewBox="0 0 187.5 77.8" style="enable-background:new 0 0 187.5 77.8;" xml:space="preserve">
<style type="text/css">
	.st0{fill:#4063D8;}
	.st1{fill:none;stroke:#9558B2;stroke-width:3.9172;stroke-linecap:round;stroke-miterlimit:10;}
	.st2{fill:none;stroke:#389826;stroke-width:3.9172;stroke-linecap:round;stroke-miterlimit:10;}
	.st3{fill:none;stroke:#CB3C33;stroke-width:3.9172;stroke-linecap:round;stroke-miterlimit:10;}
</style>
<path d="M23.5,57.8h-4.1l-0.8-15.1c-0.1-2.2-0.2-4.6-0.2-7.3l0-3.5l-4.8,20.6h-4L4.6,31.9c0.1,1.2,0.1,3.2,0.1,5.9
	c0,2.2,0,3.9-0.1,4.9L3.9,57.8H0l1.7-29.8h5.6l4.6,20.2l4.4-20.2h5.6L23.5,57.8z"/>
<path d="M46.1,54.6c0.3,0.4,0.7,0.7,1.4,0.9l-1,2.9c-2.3-0.3-3.7-1.4-4.4-3.2c-0.8,1-1.8,1.8-3.1,2.4c-1.2,0.5-2.6,0.8-4.1,0.8
	c-2.3,0-4.1-0.6-5.4-1.9c-1.3-1.3-2-3-2-5.1c0-2.4,0.9-4.2,2.8-5.5c1.9-1.3,4.5-1.9,8-1.9h3.3v-1.7c0-1.5-0.4-2.6-1.3-3.3
	c-0.9-0.7-2.2-1-3.9-1c-1.8,0-3.8,0.4-6,1.2l-1.1-3c2.8-1,5.3-1.5,7.7-1.5c2.9,0,5.1,0.7,6.6,2c1.5,1.3,2.2,3.1,2.2,5.5v10.6
	C45.7,53.5,45.8,54.2,46.1,54.6z M39.1,54.5c1-0.5,1.8-1.3,2.4-2.3v-5.5h-3c-2.3,0-4,0.4-5,1.2c-1.1,0.8-1.6,1.9-1.6,3.4
	c0,1.3,0.3,2.3,1,3c0.7,0.7,1.7,1,3.1,1C37.1,55.3,38.1,55,39.1,54.5z"/>
<path d="M73.9,35.1l-0.6,8H70v-4.8h0c-3.4,0-5.9,2.5-7.3,7.4v9.1h4.6v3.1H55v-3.1h3.5V38.1H55v-3.1h6.7l0.7,5.3c0.9-2,2-3.4,3.3-4.4
	c1.3-1,2.9-1.4,4.9-1.4C71.6,34.5,72.7,34.7,73.9,35.1z"/>
<path d="M97.2,52.9l1.9,2.7c-1,0.8-2.2,1.5-3.6,2c-1.4,0.5-2.8,0.8-4.2,0.8c-3.4,0-6.1-1.1-8-3.2c-1.9-2.1-2.9-5-2.9-8.6
	c0-2.3,0.4-4.4,1.3-6.2c0.9-1.8,2.1-3.3,3.8-4.3c1.6-1,3.6-1.6,5.8-1.6c2.9,0,5.5,0.9,7.7,2.7l-1.9,2.7c-1.9-1.3-3.8-2-5.8-2
	c-2,0-3.6,0.7-4.7,2.2c-1.2,1.5-1.8,3.6-1.8,6.5c0,2.8,0.6,4.9,1.8,6.3c1.2,1.4,2.7,2,4.7,2C93.3,54.9,95.2,54.2,97.2,52.9z"/>
<path d="M123,37.7c1.7,2.1,2.6,5,2.6,8.7c0,3.6-0.9,6.5-2.6,8.7c-1.8,2.2-4.2,3.2-7.4,3.2c-3.2,0-5.7-1.1-7.4-3.2
	c-1.7-2.1-2.6-5-2.6-8.7c0-3.6,0.9-6.5,2.6-8.7c1.8-2.2,4.2-3.3,7.4-3.3C118.8,34.5,121.2,35.6,123,37.7z M111.3,39.9
	c-0.9,1.4-1.4,3.6-1.4,6.5c0,2.9,0.5,5.1,1.4,6.5c0.9,1.4,2.3,2.1,4.2,2.1c1.9,0,3.3-0.7,4.2-2.1c0.9-1.4,1.4-3.6,1.4-6.5
	c0-2.9-0.5-5.1-1.4-6.5c-0.9-1.4-2.3-2.1-4.2-2.1C113.7,37.8,112.3,38.5,111.3,39.9z"/>
<path d="M132.6,35.1h3.6l0.3,3.1c0.9-1.2,2.1-2,3.4-2.7c1.3-0.6,2.7-1,4.1-1c2.1,0,3.7,0.6,4.8,1.8c1.1,1.2,1.6,2.8,1.6,5v16.6h-4.2
	v-14c0-1.6-0.1-2.8-0.3-3.6c-0.2-0.8-0.5-1.5-1-1.9c-0.5-0.4-1.3-0.6-2.3-0.6c-1.2,0-2.2,0.4-3.3,1.1c-1,0.7-1.9,1.6-2.6,2.6v16.5
	h-4.2V35.1z"/>
<polygon points="170.5,35.1 170.5,54.7 176.8,54.7 176.8,57.8 159.4,57.8 159.4,54.7 166.3,54.7 166.3,38.2 159.6,38.2 159.6,35.1 
	"/>
<path class="st0" d="M169.2,26.5c0.4,0.4,0.7,1,0.7,1.6c0,0.7-0.2,1.2-0.7,1.6c-0.4,0.4-1,0.6-1.7,0.6c-0.7,0-1.3-0.2-1.7-0.6
	c-0.4-0.4-0.7-1-0.7-1.6c0-0.6,0.2-1.2,0.7-1.6c0.4-0.4,1-0.7,1.7-0.7C168.1,25.9,168.7,26.1,169.2,26.5z"/>
<path class="st1" d="M160.8,21.2c3.7-3.7,9.7-3.7,13.4,0"/>
<path class="st2" d="M149.4,9.5c10-10,26.2-10,36.2,0"/>
<path class="st3" d="M155.2,15.3c6.8-6.8,17.7-6.8,24.5,0"/>
<g>
	<path d="M3.7,74.5H1.4L1,76H0.1l1.9-6h1.1l1.9,6H4.2L3.7,74.5z M1.6,73.8h1.9l-0.9-3.1L1.6,73.8z"/>
	<path d="M14.8,74c0,0.6-0.2,1.1-0.5,1.5c-0.3,0.4-0.9,0.6-1.6,0.6c-0.6,0-1.2-0.2-1.7-0.5l0.4-0.6c0.4,0.3,0.9,0.4,1.3,0.4
		c0.4,0,0.7-0.1,0.9-0.4c0.2-0.3,0.3-0.6,0.3-1.1v-3.3h-1.8V70h2.6V74z"/>
	<path d="M17.3,74.6c0,0.3,0.1,0.5,0.2,0.6c0.1,0.1,0.3,0.2,0.5,0.2c0.2,0,0.4-0.1,0.7-0.2c0.2-0.1,0.4-0.3,0.5-0.5v-3.3H20V76h-0.7
		l-0.1-0.6c-0.2,0.2-0.4,0.4-0.7,0.5c-0.3,0.1-0.5,0.2-0.8,0.2c-0.4,0-0.8-0.1-1-0.4c-0.2-0.2-0.3-0.6-0.3-1v-3.3h0.8V74.6z"/>
	<path d="M23.5,74.8c0,0.4,0.2,0.6,0.7,0.6c0.2,0,0.5-0.1,0.8-0.2l0.2,0.6c-0.3,0.2-0.7,0.2-1.1,0.2c-0.4,0-0.8-0.1-1-0.4
		c-0.3-0.2-0.4-0.6-0.4-1v-4.5h-1.4v-0.6h2.2V74.8z"/>
	<path d="M29.2,71.4v3.9h1.3V76H27v-0.6h1.4V72H27v-0.6H29.2z M29,69.4c0.1,0.1,0.2,0.2,0.2,0.4c0,0.2-0.1,0.3-0.2,0.4
		c-0.1,0.1-0.2,0.2-0.4,0.2c-0.2,0-0.3-0.1-0.4-0.2S28,69.9,28,69.8c0-0.2,0.1-0.3,0.2-0.4c0.1-0.1,0.2-0.2,0.4-0.2
		C28.8,69.2,28.9,69.3,29,69.4z"/>
	<path d="M35.5,75.3c0.1,0.1,0.1,0.1,0.3,0.2l-0.2,0.6c-0.5-0.1-0.8-0.3-0.9-0.6c-0.2,0.2-0.4,0.4-0.6,0.5c-0.2,0.1-0.5,0.2-0.8,0.2
		c-0.5,0-0.8-0.1-1.1-0.4c-0.3-0.3-0.4-0.6-0.4-1c0-0.5,0.2-0.8,0.6-1.1c0.4-0.3,0.9-0.4,1.6-0.4h0.7v-0.3c0-0.3-0.1-0.5-0.3-0.7
		C34.1,72,33.9,72,33.5,72c-0.4,0-0.8,0.1-1.2,0.2l-0.2-0.6c0.6-0.2,1.1-0.3,1.5-0.3c0.6,0,1,0.1,1.3,0.4c0.3,0.3,0.4,0.6,0.4,1.1
		v2.1C35.4,75.1,35.4,75.2,35.5,75.3z M34.1,75.3c0.2-0.1,0.4-0.3,0.5-0.5v-1.1H34c-0.5,0-0.8,0.1-1,0.2c-0.2,0.2-0.3,0.4-0.3,0.7
		c0,0.3,0.1,0.5,0.2,0.6c0.1,0.1,0.3,0.2,0.6,0.2C33.7,75.5,33.9,75.4,34.1,75.3z"/>
	<path d="M42.7,76v-6h0.9v5.2h2.7L46.2,76H42.7z"/>
	<path d="M50,71.4v3.9h1.3V76h-3.5v-0.6h1.4V72h-1.3v-0.6H50z M49.8,69.4c0.1,0.1,0.2,0.2,0.2,0.4c0,0.2-0.1,0.3-0.2,0.4
		c-0.1,0.1-0.2,0.2-0.4,0.2c-0.2,0-0.3-0.1-0.4-0.2c-0.1-0.1-0.2-0.2-0.2-0.4c0-0.2,0.1-0.3,0.2-0.4c0.1-0.1,0.2-0.2,0.4-0.2
		C49.6,69.2,49.7,69.3,49.8,69.4z"/>
	<path d="M54.3,71.5c0.2-0.1,0.5-0.2,0.7-0.2c0.6,0,1,0.2,1.3,0.6c0.3,0.4,0.4,1,0.4,1.8c0,0.7-0.2,1.3-0.5,1.7
		c-0.3,0.4-0.8,0.7-1.3,0.7c-0.5,0-0.9-0.2-1.2-0.6L53.6,76h-0.7v-6.4l0.8-0.1V72C53.8,71.7,54,71.6,54.3,71.5z M55.5,75
		c0.2-0.3,0.3-0.7,0.3-1.3c0-1.2-0.3-1.7-1-1.7c-0.2,0-0.4,0.1-0.6,0.2c-0.2,0.1-0.3,0.3-0.5,0.5v2.2c0.1,0.2,0.3,0.3,0.4,0.4
		c0.2,0.1,0.3,0.1,0.5,0.1C55,75.4,55.3,75.3,55.5,75z"/>
	<path d="M61.9,71.4L61.7,73h-0.6v-1h0c-0.7,0-1.2,0.5-1.5,1.5v1.8h0.9V76h-2.5v-0.6h0.7V72h-0.7v-0.6h1.3l0.1,1.1
		c0.2-0.4,0.4-0.7,0.7-0.9c0.3-0.2,0.6-0.3,1-0.3C61.4,71.3,61.6,71.3,61.9,71.4z"/>
	<path d="M66.7,75.3c0.1,0.1,0.1,0.1,0.3,0.2l-0.2,0.6c-0.5-0.1-0.8-0.3-0.9-0.6c-0.2,0.2-0.4,0.4-0.6,0.5c-0.2,0.1-0.5,0.2-0.8,0.2
		c-0.5,0-0.8-0.1-1.1-0.4c-0.3-0.3-0.4-0.6-0.4-1c0-0.5,0.2-0.8,0.6-1.1c0.4-0.3,0.9-0.4,1.6-0.4h0.7v-0.3c0-0.3-0.1-0.5-0.3-0.7
		C65.3,72,65.1,72,64.7,72c-0.4,0-0.8,0.1-1.2,0.2l-0.2-0.6c0.6-0.2,1.1-0.3,1.5-0.3c0.6,0,1,0.1,1.3,0.4c0.3,0.3,0.4,0.6,0.4,1.1
		v2.1C66.6,75.1,66.6,75.2,66.7,75.3z M65.3,75.3c0.2-0.1,0.4-0.3,0.5-0.5v-1.1h-0.6c-0.5,0-0.8,0.1-1,0.2c-0.2,0.2-0.3,0.4-0.3,0.7
		c0,0.3,0.1,0.5,0.2,0.6c0.1,0.1,0.3,0.2,0.6,0.2C64.9,75.5,65.1,75.4,65.3,75.3z"/>
	<path d="M72.3,71.4L72.1,73h-0.6v-1h0c-0.7,0-1.2,0.5-1.5,1.5v1.8h0.9V76h-2.5v-0.6h0.7V72h-0.7v-0.6h1.3l0.1,1.1
		c0.2-0.4,0.4-0.7,0.7-0.9c0.3-0.2,0.6-0.3,1-0.3C71.8,71.3,72,71.3,72.3,71.4z"/>
	<path d="M75.9,76c-0.2,0.5-0.4,1-0.8,1.3c-0.3,0.3-0.8,0.5-1.4,0.6l-0.1-0.7c0.3-0.1,0.5-0.1,0.7-0.2s0.3-0.2,0.4-0.4
		s0.2-0.4,0.3-0.6h-0.3l-1.6-4.6h0.9l1.2,4l1.2-4h0.9L75.9,76z"/>
	<path d="M88.1,69.7l-0.3,0.6c-0.3-0.1-0.6-0.2-1-0.2c-0.6,0-0.9,0.2-0.9,0.7v0.9h1.5l-0.1,0.6h-1.4V76h-0.8v-3.6H84v-0.6h1.1v-0.9
		c0-0.4,0.2-0.8,0.5-1c0.3-0.3,0.7-0.4,1.2-0.4C87.2,69.5,87.7,69.5,88.1,69.7z"/>
	<path d="M92.5,71.9c0.3,0.4,0.5,1,0.5,1.8c0,0.7-0.2,1.3-0.5,1.7c-0.4,0.4-0.8,0.7-1.5,0.7c-0.6,0-1.1-0.2-1.5-0.6
		c-0.3-0.4-0.5-1-0.5-1.7c0-0.7,0.2-1.3,0.5-1.7c0.4-0.4,0.8-0.7,1.5-0.7C91.7,71.3,92.2,71.5,92.5,71.9z M90.2,72.4
		c-0.2,0.3-0.3,0.7-0.3,1.3c0,0.6,0.1,1,0.3,1.3c0.2,0.3,0.5,0.4,0.8,0.4s0.7-0.1,0.8-0.4c0.2-0.3,0.3-0.7,0.3-1.3
		c0-0.6-0.1-1-0.3-1.3c-0.2-0.3-0.5-0.4-0.8-0.4C90.7,71.9,90.4,72.1,90.2,72.4z"/>
	<path d="M98.3,71.4L98.1,73h-0.6v-1h0c-0.7,0-1.2,0.5-1.5,1.5v1.8H97V76h-2.5v-0.6h0.7V72h-0.7v-0.6h1.3l0.1,1.1
		c0.2-0.4,0.4-0.7,0.7-0.9c0.3-0.2,0.6-0.3,1-0.3C97.8,71.3,98,71.3,98.3,71.4z"/>
	<path d="M108.1,75.3c-0.5,0.4-1.2,0.7-1.9,0.7h-1.4v-6h1.3c0.8,0,1.5,0.2,2.1,0.6c0.5,0.4,0.8,1.2,0.8,2.3
		C108.8,74.1,108.6,74.9,108.1,75.3z M107.5,71.1c-0.3-0.3-0.7-0.5-1.3-0.5h-0.6v4.6h0.7c0.5,0,0.9-0.2,1.2-0.5
		c0.3-0.3,0.5-1,0.5-1.8C107.9,72,107.8,71.4,107.5,71.1z"/>
	<path d="M113.3,70c0.3,0.1,0.5,0.2,0.8,0.5l-0.5,0.5c-0.4-0.3-0.8-0.4-1.2-0.4c-0.5,0-0.9,0.2-1.3,0.6c-0.3,0.4-0.5,1-0.5,1.8
		c0,0.8,0.2,1.4,0.5,1.8c0.3,0.4,0.7,0.6,1.3,0.6c0.3,0,0.6,0,0.8-0.1c0.2-0.1,0.4-0.2,0.6-0.4l0.4,0.5c-0.2,0.2-0.5,0.4-0.8,0.5
		c-0.3,0.1-0.7,0.2-1.1,0.2c-0.5,0-1-0.1-1.3-0.4c-0.4-0.2-0.7-0.6-0.9-1.1c-0.2-0.5-0.3-1-0.3-1.7c0-0.6,0.1-1.2,0.3-1.7
		c0.2-0.5,0.5-0.8,0.9-1.1c0.4-0.2,0.8-0.4,1.3-0.4C112.7,69.9,113,69.9,113.3,70z"/>
	<path d="M123.6,76c-0.2,0.1-0.5,0.1-0.7,0.1c-0.5,0-0.9-0.1-1.2-0.4c-0.3-0.3-0.4-0.6-0.4-1V72h-1v-0.6h1v-1l0.8-0.1v1.1h1.6
		l-0.1,0.6h-1.5v2.6c0,0.3,0.1,0.4,0.2,0.6c0.1,0.1,0.3,0.2,0.6,0.2c0.3,0,0.6-0.1,0.9-0.2l0.3,0.6C124,75.8,123.8,75.9,123.6,76z"
		/>
	<path d="M128.9,71.9c0.3,0.4,0.5,1,0.5,1.8c0,0.7-0.2,1.3-0.5,1.7c-0.4,0.4-0.8,0.7-1.5,0.7c-0.6,0-1.1-0.2-1.5-0.6
		c-0.3-0.4-0.5-1-0.5-1.7c0-0.7,0.2-1.3,0.5-1.7c0.4-0.4,0.8-0.7,1.5-0.7C128.1,71.3,128.6,71.5,128.9,71.9z M126.6,72.4
		c-0.2,0.3-0.3,0.7-0.3,1.3c0,0.6,0.1,1,0.3,1.3c0.2,0.3,0.5,0.4,0.8,0.4s0.7-0.1,0.8-0.4c0.2-0.3,0.3-0.7,0.3-1.3
		c0-0.6-0.1-1-0.3-1.3c-0.2-0.3-0.5-0.4-0.8-0.4C127.1,71.9,126.8,72.1,126.6,72.4z"/>
	<path d="M139.3,75.3c-0.5,0.4-1.2,0.7-1.9,0.7h-1.4v-6h1.3c0.8,0,1.5,0.2,2.1,0.6c0.5,0.4,0.8,1.2,0.8,2.3
		C140.1,74.1,139.8,74.9,139.3,75.3z M138.7,71.1c-0.3-0.3-0.7-0.5-1.3-0.5h-0.6v4.6h0.7c0.5,0,0.9-0.2,1.2-0.5
		c0.3-0.3,0.5-1,0.5-1.8C139.1,72,139,71.4,138.7,71.1z"/>
	<path d="M144.7,75.3c0.1,0.1,0.1,0.1,0.3,0.2l-0.2,0.6c-0.5-0.1-0.8-0.3-0.9-0.6c-0.2,0.2-0.4,0.4-0.6,0.5
		c-0.2,0.1-0.5,0.2-0.8,0.2c-0.5,0-0.8-0.1-1.1-0.4c-0.3-0.3-0.4-0.6-0.4-1c0-0.5,0.2-0.8,0.6-1.1c0.4-0.3,0.9-0.4,1.6-0.4h0.7v-0.3
		c0-0.3-0.1-0.5-0.3-0.7c-0.2-0.1-0.4-0.2-0.8-0.2c-0.4,0-0.8,0.1-1.2,0.2l-0.2-0.6c0.6-0.2,1.1-0.3,1.5-0.3c0.6,0,1,0.1,1.3,0.4
		c0.3,0.3,0.4,0.6,0.4,1.1v2.1C144.6,75.1,144.7,75.2,144.7,75.3z M143.3,75.3c0.2-0.1,0.4-0.3,0.5-0.5v-1.1h-0.6
		c-0.5,0-0.8,0.1-1,0.2c-0.2,0.2-0.3,0.4-0.3,0.7c0,0.3,0.1,0.5,0.2,0.6c0.1,0.1,0.3,0.2,0.6,0.2C142.9,75.5,143.1,75.4,143.3,75.3z
		"/>
	<path d="M148.8,76c-0.2,0.5-0.4,1-0.8,1.3c-0.3,0.3-0.8,0.5-1.4,0.6l-0.1-0.7c0.3-0.1,0.5-0.1,0.7-0.2s0.3-0.2,0.4-0.4
		c0.1-0.2,0.2-0.4,0.3-0.6h-0.3l-1.6-4.6h0.9l1.2,4l1.2-4h0.9L148.8,76z"/>
	<path d="M153.5,74.8c0,0.4,0.2,0.6,0.7,0.6c0.2,0,0.5-0.1,0.8-0.2l0.2,0.6c-0.3,0.2-0.7,0.2-1.1,0.2c-0.4,0-0.8-0.1-1-0.4
		c-0.3-0.2-0.4-0.6-0.4-1v-4.5h-1.4v-0.6h2.2V74.8z"/>
	<path d="M159.3,71.4v3.9h1.3V76H157v-0.6h1.4V72h-1.3v-0.6H159.3z M159.1,69.4c0.1,0.1,0.2,0.2,0.2,0.4c0,0.2-0.1,0.3-0.2,0.4
		c-0.1,0.1-0.2,0.2-0.4,0.2c-0.2,0-0.3-0.1-0.4-0.2c-0.1-0.1-0.2-0.2-0.2-0.4c0-0.2,0.1-0.3,0.2-0.4c0.1-0.1,0.2-0.2,0.4-0.2
		C158.8,69.2,159,69.3,159.1,69.4z"/>
	<path d="M166.1,71.6c-0.2,0.1-0.4,0.1-0.6,0.1c-0.2,0-0.5,0-0.8,0c0.3,0.1,0.5,0.3,0.6,0.5c0.1,0.2,0.2,0.4,0.2,0.7
		c0,0.5-0.2,0.8-0.5,1.1c-0.3,0.3-0.7,0.4-1.3,0.4c-0.3,0-0.5,0-0.7-0.1c-0.1,0.1-0.1,0.1-0.2,0.2c0,0.1-0.1,0.1-0.1,0.2
		c0,0.2,0.2,0.4,0.6,0.4h0.8c0.3,0,0.6,0.1,0.8,0.2c0.2,0.1,0.4,0.3,0.6,0.5c0.1,0.2,0.2,0.4,0.2,0.6c0,0.5-0.2,0.8-0.6,1
		c-0.4,0.2-0.9,0.4-1.7,0.4c-0.5,0-0.9-0.1-1.2-0.2c-0.3-0.1-0.5-0.3-0.6-0.5c-0.1-0.2-0.2-0.5-0.2-0.8h0.8c0,0.2,0,0.3,0.1,0.4
		c0.1,0.1,0.2,0.2,0.4,0.2c0.2,0.1,0.4,0.1,0.8,0.1c0.5,0,0.8-0.1,1.1-0.2c0.2-0.1,0.3-0.3,0.3-0.5c0-0.2-0.1-0.4-0.3-0.5
		c-0.2-0.1-0.4-0.2-0.7-0.2h-0.8c-0.4,0-0.7-0.1-0.9-0.2c-0.2-0.2-0.3-0.4-0.3-0.6c0-0.2,0-0.3,0.1-0.4c0.1-0.1,0.2-0.3,0.4-0.4
		c-0.3-0.1-0.5-0.3-0.6-0.5c-0.1-0.2-0.2-0.5-0.2-0.7c0-0.3,0.1-0.6,0.2-0.8c0.2-0.2,0.4-0.4,0.7-0.6c0.3-0.1,0.6-0.2,1-0.2
		c0.5,0,0.9,0,1.2-0.1c0.3-0.1,0.6-0.2,0.9-0.3L166.1,71.6z M163,72.2c-0.2,0.2-0.3,0.4-0.3,0.7c0,0.3,0.1,0.6,0.3,0.7
		c0.2,0.2,0.4,0.3,0.8,0.3c0.3,0,0.5-0.1,0.7-0.3c0.2-0.2,0.2-0.4,0.2-0.8c0-0.7-0.3-1-1-1C163.4,71.9,163.2,72,163,72.2z"/>
	<path d="M168.1,72c0.2-0.2,0.4-0.4,0.7-0.5c0.3-0.1,0.5-0.2,0.8-0.2c0.4,0,0.7,0.1,1,0.4c0.2,0.2,0.3,0.6,0.3,1V76H170v-3.3
		c0-0.3-0.1-0.5-0.2-0.6c-0.1-0.1-0.3-0.2-0.6-0.2c-0.2,0-0.4,0.1-0.6,0.2c-0.2,0.1-0.4,0.3-0.5,0.5V76h-0.8v-6.4l0.8-0.1V72z"/>
	<path d="M175.6,76c-0.2,0.1-0.5,0.1-0.7,0.1c-0.5,0-0.9-0.1-1.2-0.4c-0.3-0.3-0.4-0.6-0.4-1V72h-1v-0.6h1v-1l0.8-0.1v1.1h1.6
		l-0.1,0.6h-1.5v2.6c0,0.3,0.1,0.4,0.2,0.6c0.1,0.1,0.3,0.2,0.6,0.2c0.3,0,0.6-0.1,0.9-0.2l0.3,0.6C176,75.8,175.8,75.9,175.6,76z"
		/>
</g>
</svg>
